<svg width="449" height="445" viewBox="0 0 449 445" fill="none" xmlns="http://www.w3.org/2000/svg">
<path d="M204.809 247.903L204.809 443.903C155.809 440.403 146.309 436.11 125.309 427.403C101.809 417.659 85.3085 403.403 70.8085 391.903L204.809 247.903Z" fill="#FFADAD" stroke="black" stroke-width="2"/>
<path d="M206.269 244.439L5.39185 251.454C10.5998 300.302 17.3772 314.074 26.8121 334.757C37.3702 357.902 60.342 382.783 70.311 391.273L206.269 244.439Z" fill="#FFADAD" stroke="black" stroke-width="2"/>
<path d="M205.833 243.718L4.95572 250.733C6.74352 201.641 12.5438 187.43 20.5129 166.139C29.4307 142.313 50.6109 115.891 59.9634 106.726L205.833 243.718Z" fill="#D3FFB6" stroke="black" stroke-width="2"/>
<path d="M202.309 237.903L200.809 42.403C151.961 47.6109 137.638 53.4717 116.955 62.9066C93.8091 73.4647 68.929 96.4364 60.4384 106.405L202.309 237.903Z" fill="#D3FFB6" stroke="black" stroke-width="2"/>
<path d="M203.057 242.538L345.185 100.409C308.062 68.2358 293.713 62.7859 272.707 54.0937C249.2 44.3666 215.431 41.8371 202.35 42.4264L203.057 242.538Z" fill="#FFCA89" stroke="black" stroke-width="2"/>
<path d="M204.417 242.269H405.417C401.917 193.269 395.624 179.269 386.917 158.269C377.173 134.769 355.083 109.102 345.417 100.269L204.417 242.269Z" fill="#FFCA89" stroke="black" stroke-width="2"/>
<path d="M205.648 242.409L347.776 384.538C379.95 347.415 385.4 333.065 394.092 312.059C403.819 288.552 406.348 254.784 405.759 241.702L205.648 242.409Z" fill="#82BAF9" stroke="black" stroke-width="2"/>
<path d="M206.309 242.903V443.903C255.309 440.403 269.309 434.11 290.309 425.403C313.809 415.659 339.475 393.57 348.309 383.903L206.309 242.903Z" fill="#82BAF9" stroke="black" stroke-width="2"/>
</svg>
