<svg width="512" height="512" viewBox="0 0 512 512" fill="none" xmlns="http://www.w3.org/2000/svg">
<rect width="512" height="512" rx="30" fill="white"/>
<path d="M256.809 259.903L256.809 455.903C207.809 452.403 198.309 448.11 177.309 439.403C153.809 429.659 137.309 415.403 122.809 403.903L256.809 259.903Z" fill="#FFADAD" stroke="black" stroke-width="2"/>
<path d="M258.269 256.439L57.3919 263.454C62.5998 312.302 69.3772 326.074 78.8121 346.757C89.3702 369.902 112.342 394.783 122.311 403.273L258.269 256.439Z" fill="#FFADAD" stroke="black" stroke-width="2"/>
<path d="M257.833 255.718L56.9557 262.733C58.7435 213.641 64.5438 199.43 72.5129 178.139C81.4307 154.313 102.611 127.891 111.963 118.726L257.833 255.718Z" fill="#D3FFB6" stroke="black" stroke-width="2"/>
<path d="M254.309 249.903L252.809 54.403C203.961 59.6109 189.638 65.4717 168.955 74.9066C145.809 85.4647 120.929 108.436 112.438 118.405L254.309 249.903Z" fill="#D3FFB6" stroke="black" stroke-width="2"/>
<path d="M255.057 254.538L397.185 112.409C360.062 80.2358 345.713 74.7859 324.707 66.0937C301.2 56.3666 267.431 53.8371 254.35 54.4264L255.057 254.538Z" fill="#FFCA89" stroke="black" stroke-width="2"/>
<path d="M256.417 254.269H457.417C453.917 205.269 447.624 191.269 438.917 170.269C429.173 146.769 407.083 121.102 397.417 112.269L256.417 254.269Z" fill="#FFCA89" stroke="black" stroke-width="2"/>
<path d="M257.648 254.409L399.776 396.538C431.95 359.415 437.4 345.065 446.092 324.059C455.819 300.552 458.348 266.784 457.759 253.702L257.648 254.409Z" fill="#82BAF9" stroke="black" stroke-width="2"/>
<path d="M258.309 254.903V455.903C307.309 452.403 321.309 446.11 342.309 437.403C365.809 427.659 391.475 405.57 400.309 395.903L258.309 254.903Z" fill="#82BAF9" stroke="black" stroke-width="2"/>
<circle cx="258" cy="259" r="135" fill="white"/>
<path d="M333.167 91.4167L315.934 102.393C315.349 102.733 314.685 102.912 314.009 102.912C313.332 102.912 312.668 102.733 312.083 102.393L294.833 91.4167M298.667 85.6667H329.333C331.45 85.6667 333.167 87.3829 333.167 89.5V112.5C333.167 114.617 331.45 116.333 329.333 116.333H298.667C296.55 116.333 294.833 114.617 294.833 112.5V89.5C294.833 87.3829 296.55 85.6667 298.667 85.6667Z" stroke="black" stroke-width="3" stroke-linecap="round" stroke-linejoin="round"/>
<path d="M417.25 151.583C417.25 154.759 409.527 157.333 400 157.333C390.473 157.333 382.75 154.759 382.75 151.583M417.25 151.583C417.25 148.408 409.527 145.833 400 145.833C390.473 145.833 382.75 148.408 382.75 151.583M417.25 151.583V178.417C417.25 179.942 415.433 181.404 412.198 182.483C408.963 183.561 404.575 184.167 400 184.167C395.425 184.167 391.037 183.561 387.802 182.483C384.567 181.404 382.75 179.942 382.75 178.417V151.583M382.75 165C382.75 166.525 384.567 167.988 387.802 169.066C391.037 170.144 395.425 170.75 400 170.75C404.575 170.75 408.963 170.144 412.198 169.066C415.433 167.988 417.25 166.525 417.25 165" stroke="black" stroke-width="3" stroke-linecap="round" stroke-linejoin="round"/>
<path d="M435.437 225.642H404.563M431.5 204.583C432.517 204.583 433.492 204.987 434.211 205.706C434.929 206.425 435.333 207.4 435.333 208.417V224.758C435.333 225.355 435.472 225.944 435.74 226.477L437.787 230.554C437.934 230.847 438.004 231.174 437.99 231.502C437.975 231.83 437.877 232.149 437.704 232.427C437.53 232.706 437.288 232.936 437.001 233.095C436.713 233.254 436.39 233.336 436.062 233.333H403.938C403.61 233.336 403.287 233.254 402.999 233.095C402.712 232.936 402.47 232.706 402.296 232.427C402.123 232.149 402.025 231.83 402.01 231.502C401.996 231.174 402.066 230.847 402.213 230.554L404.26 226.477C404.528 225.944 404.667 225.355 404.667 224.758V208.417C404.667 207.4 405.071 206.425 405.789 205.706C406.508 204.987 407.483 204.583 408.5 204.583H431.5Z" stroke="black" stroke-width="3" stroke-linecap="round" stroke-linejoin="round"/>
<path d="M411.5 289.833L414.375 284.275C414.688 283.654 415.163 283.13 415.75 282.759C416.338 282.387 417.015 282.183 417.71 282.167H438.333M438.333 282.167C438.919 282.166 439.497 282.299 440.023 282.556C440.549 282.813 441.01 283.187 441.369 283.65C441.728 284.113 441.976 284.651 442.094 285.225C442.213 285.798 442.198 286.391 442.052 286.958L439.1 298.458C438.886 299.285 438.403 300.018 437.726 300.538C437.048 301.059 436.217 301.339 435.363 301.333H407.667C406.65 301.333 405.675 300.929 404.956 300.211C404.237 299.492 403.833 298.517 403.833 297.5V272.583C403.833 271.567 404.237 270.592 404.956 269.873C405.675 269.154 406.65 268.75 407.667 268.75H415.142C415.783 268.744 416.415 268.898 416.981 269.2C417.547 269.501 418.028 269.94 418.381 270.475L419.933 272.775C420.282 273.305 420.758 273.74 421.316 274.041C421.875 274.342 422.5 274.5 423.134 274.5H434.5C435.517 274.5 436.492 274.904 437.211 275.623C437.929 276.342 438.333 277.317 438.333 278.333V282.167Z" stroke="black" stroke-width="3" stroke-linecap="round" stroke-linejoin="round"/>
<path d="M417.5 354.333C417.5 351.283 416.288 348.358 414.132 346.202C411.975 344.045 409.05 342.833 406 342.833M406 342.833C402.95 342.833 400.025 344.045 397.868 346.202C395.712 348.358 394.5 351.283 394.5 354.333M406 342.833C410.234 342.833 413.667 339.401 413.667 335.167C413.667 330.932 410.234 327.5 406 327.5C401.766 327.5 398.333 330.932 398.333 335.167C398.333 339.401 401.766 342.833 406 342.833ZM425.167 339C425.167 349.585 416.585 358.167 406 358.167C395.415 358.167 386.833 349.585 386.833 339C386.833 328.415 395.415 319.833 406 319.833C416.585 319.833 425.167 328.415 425.167 339Z" stroke="black" stroke-width="3" stroke-linecap="round" stroke-linejoin="round"/>
<path d="M352 398.917V414.25M352 398.917L344.333 406.583M352 398.917L359.667 406.583M336.667 402.556C335.243 401.101 334.168 399.342 333.525 397.41C332.882 395.478 332.687 393.426 332.955 391.408C333.222 389.39 333.946 387.459 335.07 385.762C336.195 384.065 337.691 382.646 339.445 381.612C341.199 380.579 343.165 379.958 345.194 379.797C347.224 379.636 349.263 379.939 351.158 380.683C353.053 381.427 354.754 382.593 356.132 384.091C357.51 385.59 358.528 387.383 359.111 389.333H362.542C364.392 389.333 366.194 389.928 367.68 391.03C369.167 392.133 370.259 393.684 370.796 395.455C371.333 397.226 371.287 399.122 370.663 400.865C370.04 402.607 368.872 404.103 367.333 405.13" stroke="black" stroke-width="3" stroke-linecap="round" stroke-linejoin="round"/>
<path d="M309.542 430.417H293.25C290.762 430.416 288.323 429.724 286.206 428.417C284.089 427.11 282.377 425.24 281.261 423.016C280.145 420.792 279.67 418.301 279.889 415.823C280.107 413.344 281.01 410.975 282.497 408.981C283.984 406.986 285.997 405.444 288.31 404.527C290.623 403.611 293.145 403.355 295.595 403.789C298.045 404.224 300.326 405.331 302.183 406.987C304.04 408.643 305.4 410.782 306.111 413.167H309.542C311.829 413.167 314.023 414.075 315.64 415.693C317.258 417.31 318.167 419.504 318.167 421.792C318.167 424.079 317.258 426.273 315.64 427.89C314.023 429.508 311.829 430.417 309.542 430.417Z" stroke="black" stroke-width="3" stroke-linecap="round" stroke-linejoin="round"/>
<path d="M208.417 418.083V425.75C208.417 426.767 208.821 427.742 209.539 428.461C210.258 429.179 211.233 429.583 212.25 429.583H219.917M204.583 402.75H212.25C214.367 402.75 216.083 404.466 216.083 406.583V414.25C216.083 416.367 214.367 418.083 212.25 418.083H204.583C202.466 418.083 200.75 416.367 200.75 414.25V406.583C200.75 404.466 202.466 402.75 204.583 402.75ZM223.75 421.917H231.417C233.534 421.917 235.25 423.633 235.25 425.75V433.417C235.25 435.534 233.534 437.25 231.417 437.25H223.75C221.633 437.25 219.917 435.534 219.917 433.417V425.75C219.917 423.633 221.633 421.917 223.75 421.917Z" stroke="black" stroke-width="3" stroke-linecap="round" stroke-linejoin="round"/>
<path d="M169 389.333V381.667H161.333M149.833 400.833H153.667M184.333 400.833H188.167M174.75 398.917V402.75M163.25 398.917V402.75M157.5 389.333H180.5C182.617 389.333 184.333 391.05 184.333 393.167V408.5C184.333 410.617 182.617 412.333 180.5 412.333H157.5C155.383 412.333 153.667 410.617 153.667 408.5V393.167C153.667 391.05 155.383 389.333 157.5 389.333Z" stroke="black" stroke-width="3" stroke-linecap="round" stroke-linejoin="round"/>
<path d="M113.417 362.5V351C113.417 348.458 114.426 346.021 116.224 344.224C118.021 342.426 120.458 341.417 123 341.417C125.542 341.417 127.979 342.426 129.776 344.224C131.574 346.021 132.583 348.458 132.583 351V362.5M113.417 362.5H132.583M113.417 362.5C112.4 362.5 111.425 362.904 110.706 363.623C109.987 364.342 109.583 365.317 109.583 366.333V368.25C109.583 368.758 109.785 369.246 110.145 369.605C110.504 369.965 110.992 370.167 111.5 370.167H134.5C135.008 370.167 135.496 369.965 135.855 369.605C136.215 369.246 136.417 368.758 136.417 368.25V366.333C136.417 365.317 136.013 364.342 135.294 363.623C134.575 362.904 133.6 362.5 132.583 362.5M140.25 351H142.167M135.458 336.625L134.5 337.583M103.833 351H105.75M123 331.833V333.75M109.447 337.447L110.802 338.802M123 351V362.5" stroke="black" stroke-width="3" stroke-linecap="round" stroke-linejoin="round"/>
<path d="M78.75 280.75V311.417C78.75 312.433 79.1539 313.408 79.8728 314.127C80.5916 314.846 81.5667 315.25 82.5833 315.25H113.25M107.5 307.583V292.25M97.9167 307.583V284.583M88.3333 307.583V301.833" stroke="black" stroke-width="3" stroke-linecap="round" stroke-linejoin="round"/>
<path d="M119.167 195C119.167 205.585 110.585 214.167 100 214.167M119.167 195C119.167 184.415 110.585 175.833 100 175.833M119.167 195H80.8333M100 214.167C89.4145 214.167 80.8333 205.585 80.8333 195M100 214.167C95.0785 208.999 92.3333 202.136 92.3333 195C92.3333 187.864 95.0785 181.001 100 175.833M100 214.167C104.922 208.999 107.667 202.136 107.667 195C107.667 187.864 104.922 181.001 100 175.833M80.8333 195C80.8333 184.415 89.4145 175.833 100 175.833" stroke="black" stroke-width="3" stroke-linecap="round" stroke-linejoin="round"/>
<path d="M258 373.225C321.085 373.225 372.225 322.085 372.225 259C372.225 195.915 321.085 144.775 258 144.775C194.915 144.775 143.775 195.915 143.775 259C143.775 322.085 194.915 373.225 258 373.225Z" fill="#C7E0F5"/>
<path d="M378.303 258.999C378.303 226.865 365.789 196.654 343.067 173.932C320.345 151.21 290.134 138.696 258 138.696C225.866 138.696 195.655 151.21 172.933 173.932C150.211 196.654 137.697 226.865 137.697 258.999C137.697 291.133 150.211 321.344 172.933 344.066C195.639 366.771 225.82 379.282 257.928 379.301C257.952 379.301 257.976 379.304 258 379.304C258.021 379.304 258.043 379.301 258.065 379.301C290.175 379.284 320.36 366.773 343.067 344.066C365.789 321.344 378.303 291.133 378.303 258.999ZM150.282 265.2H188.127C188.603 280.246 190.818 294.317 194.748 307.215H161.492C155.083 294.441 151.138 280.228 150.282 265.2ZM161.492 210.783H194.748C190.818 223.681 188.603 237.752 188.127 252.798H150.282C151.138 237.77 155.083 223.557 161.492 210.783ZM365.718 252.798H327.873C327.397 237.752 325.182 223.681 321.251 210.783H354.508C360.917 223.557 364.862 237.77 365.718 252.798ZM315.469 252.798H264.201V210.783H308.16C312.476 223.515 314.944 237.606 315.469 252.798ZM264.201 198.38V154.828C269.788 158.079 277.544 163.495 285.356 171.867C292.546 179.573 298.497 188.466 303.168 198.38H264.201V198.38ZM251.799 154.857V198.38H212.715C217.283 188.74 223.109 180.048 230.195 172.35C238.099 163.766 246.074 158.193 251.799 154.857ZM251.799 210.783V252.798H200.526C201.032 237.456 203.435 223.429 207.71 210.783H251.799ZM200.526 265.2H251.799V307.215H207.71C203.435 294.569 201.032 280.542 200.526 265.2ZM251.799 319.618V363.141C246.074 359.806 238.099 354.232 230.196 345.647C223.109 337.95 217.283 329.257 212.715 319.618H251.799V319.618ZM264.201 363.141V319.618H303.285C298.717 329.258 292.891 337.95 285.805 345.648C277.899 354.233 269.923 359.807 264.201 363.141ZM264.201 307.216V265.201H315.474C314.968 280.542 312.565 294.569 308.291 307.216H264.201ZM327.874 265.2H365.718C364.863 280.228 360.917 294.441 354.509 307.215H321.252C325.182 294.317 327.398 280.246 327.874 265.2ZM347.217 198.38H316.795C311.28 185.176 303.764 173.416 294.424 163.406C291.301 160.059 288.176 157.124 285.152 154.561C310.761 161.223 332.698 177.08 347.217 198.38ZM230.848 154.561C227.825 157.124 224.699 160.059 221.577 163.406C212.236 173.416 204.72 185.176 199.205 198.38H168.783C183.302 177.08 205.239 161.223 230.848 154.561ZM168.783 319.618H199.205C204.72 332.822 212.236 344.583 221.577 354.592C224.7 357.939 227.826 360.874 230.849 363.438C205.239 356.776 183.302 340.918 168.783 319.618ZM285.151 363.438C288.175 360.874 291.3 357.939 294.424 354.592C303.764 344.582 311.28 332.822 316.795 319.618H347.217C332.698 340.918 310.761 356.776 285.151 363.438Z" fill="#547DBF"/>
<path d="M161.167 98.6667V106.333M145.833 106.333H184.167M153.5 98.6667V106.333M149.667 98.6667H180.333C182.45 98.6667 184.167 100.383 184.167 102.5V125.5C184.167 127.617 182.45 129.333 180.333 129.333H149.667C147.55 129.333 145.833 127.617 145.833 125.5V102.5C145.833 100.383 147.55 98.6667 149.667 98.6667Z" stroke="black" stroke-width="3" stroke-linecap="round" stroke-linejoin="round"/>
<path d="M215 109.5H215.019M205.417 78.8333H224.583C226.7 78.8333 228.417 80.5496 228.417 82.6667V113.333C228.417 115.45 226.7 117.167 224.583 117.167H205.417C203.3 117.167 201.583 115.45 201.583 113.333V82.6667C201.583 80.5496 203.3 78.8333 205.417 78.8333Z" stroke="black" stroke-width="3" stroke-linecap="round" stroke-linejoin="round"/>
</svg>
